<svg xmlns="http://www.w3.org/2000/svg" xmlns:xlink="http://www.w3.org/1999/xlink" width="1000" zoomAndPan="magnify" viewBox="0 0 750 749.999995" height="1000" preserveAspectRatio="xMidYMid meet" version="1.0"><defs><clipPath id="1db2736c2d"><path d="M 7.570312 7.570312 L 742.429688 7.570312 L 742.429688 742.429688 L 7.570312 742.429688 Z M 7.570312 7.570312 " clip-rule="nonzero"/></clipPath><clipPath id="ec15eb05e8"><path d="M 375 7.570312 C 172.074219 7.570312 7.570312 172.074219 7.570312 375 C 7.570312 577.925781 172.074219 742.429688 375 742.429688 C 577.925781 742.429688 742.429688 577.925781 742.429688 375 C 742.429688 172.074219 577.925781 7.570312 375 7.570312 Z M 375 7.570312 " clip-rule="nonzero"/></clipPath><clipPath id="0538e132de"><path d="M 0.570312 0.570312 L 735.429688 0.570312 L 735.429688 735.429688 L 0.570312 735.429688 Z M 0.570312 0.570312 " clip-rule="nonzero"/></clipPath><clipPath id="b4e0ba5651"><path d="M 368 0.570312 C 165.074219 0.570312 0.570312 165.074219 0.570312 368 C 0.570312 570.925781 165.074219 735.429688 368 735.429688 C 570.925781 735.429688 735.429688 570.925781 735.429688 368 C 735.429688 165.074219 570.925781 0.570312 368 0.570312 Z M 368 0.570312 " clip-rule="nonzero"/></clipPath><clipPath id="37d5927d14"><rect x="0" width="736" y="0" height="736"/></clipPath><clipPath id="65ddc245c3"><path d="M 278 148 L 475 148 L 475 606.402344 L 278 606.402344 Z M 278 148 " clip-rule="nonzero"/></clipPath></defs><g clip-path="url(#1db2736c2d)"><g clip-path="url(#ec15eb05e8)"><g transform="matrix(1, 0, 0, 1, 7, 7)"><g clip-path="url(#37d5927d14)"><g clip-path="url(#0538e132de)"><g clip-path="url(#b4e0ba5651)"><path fill="#00abf0" d="M 0.570312 0.570312 L 735.429688 0.570312 L 735.429688 735.429688 L 0.570312 735.429688 Z M 0.570312 0.570312 " fill-opacity="1" fill-rule="nonzero"/></g></g></g></g></g></g><path fill="#ffffff" d="M 212.078125 541.175781 C 202.300781 541.175781 195.785156 537.917969 189.269531 531.402344 L 58.933594 401.066406 C 45.898438 388.03125 45.898438 368.480469 58.933594 355.449219 L 189.269531 225.113281 C 202.300781 212.078125 221.851562 212.078125 234.886719 225.113281 C 247.917969 238.144531 247.917969 257.695312 234.886719 270.730469 L 127.359375 378.257812 L 234.886719 485.785156 C 247.917969 498.816406 247.917969 518.367188 234.886719 531.402344 C 228.367188 537.917969 221.851562 541.175781 212.078125 541.175781 Z M 212.078125 541.175781 " fill-opacity="1" fill-rule="nonzero"/><path fill="#ffffff" d="M 537.914062 541.175781 C 528.140625 541.175781 521.625 537.917969 515.105469 531.402344 C 502.074219 518.367188 502.074219 498.816406 515.105469 485.785156 L 622.632812 378.257812 L 515.105469 270.730469 C 502.074219 257.695312 502.074219 238.144531 515.105469 225.113281 C 528.140625 212.078125 547.691406 212.078125 560.726562 225.113281 L 691.058594 355.449219 C 704.09375 368.480469 704.09375 388.03125 691.058594 401.066406 L 560.726562 531.402344 C 554.207031 537.917969 547.691406 541.175781 537.914062 541.175781 Z M 537.914062 541.175781 " fill-opacity="1" fill-rule="nonzero"/><g clip-path="url(#65ddc245c3)"><path fill="#ffffff" d="M 309.828125 606.34375 C 306.570312 606.34375 303.3125 606.34375 300.054688 603.085938 C 283.761719 596.570312 273.988281 580.277344 280.503906 560.726562 L 410.839844 169.71875 C 417.355469 153.429688 433.648438 143.652344 453.199219 150.167969 C 469.488281 156.6875 479.265625 172.980469 472.75 192.527344 L 342.414062 583.535156 C 335.894531 596.570312 322.863281 606.34375 309.828125 606.34375 Z M 309.828125 606.34375 " fill-opacity="1" fill-rule="nonzero"/></g></svg>