<svg xmlns="http://www.w3.org/2000/svg" xmlns:xlink="http://www.w3.org/1999/xlink" width="1000" zoomAndPan="magnify" viewBox="0 0 750 749.999995" height="1000" preserveAspectRatio="xMidYMid meet" version="1.0"><defs><clipPath id="1ef00548f6"><path d="M 6.527344 6.527344 L 743.777344 6.527344 L 743.777344 743.777344 L 6.527344 743.777344 Z M 6.527344 6.527344 " clip-rule="nonzero"/></clipPath></defs><g clip-path="url(#1ef00548f6)"><path fill="#00abf0" d="M 743.472656 375 C 743.472656 381.027344 743.324219 387.054688 743.027344 393.078125 C 742.730469 399.101562 742.289062 405.113281 741.695312 411.113281 C 741.105469 417.117188 740.367188 423.097656 739.484375 429.0625 C 738.597656 435.03125 737.566406 440.96875 736.390625 446.882812 C 735.214844 452.796875 733.894531 458.679688 732.429688 464.53125 C 730.960938 470.378906 729.355469 476.1875 727.605469 481.960938 C 725.855469 487.730469 723.960938 493.453125 721.929688 499.132812 C 719.898438 504.8125 717.730469 510.433594 715.421875 516.007812 C 713.113281 521.578125 710.671875 527.089844 708.09375 532.539062 C 705.515625 537.992188 702.804688 543.375 699.960938 548.695312 C 697.121094 554.011719 694.148438 559.257812 691.046875 564.429688 C 687.949219 569.601562 684.722656 574.695312 681.371094 579.710938 C 678.023438 584.722656 674.550781 589.652344 670.957031 594.496094 C 667.367188 599.339844 663.65625 604.09375 659.832031 608.753906 C 656.003906 613.417969 652.066406 617.980469 648.019531 622.449219 C 643.96875 626.917969 639.8125 631.285156 635.546875 635.546875 C 631.285156 639.8125 626.917969 643.96875 622.449219 648.019531 C 617.980469 652.066406 613.417969 656.003906 608.753906 659.832031 C 604.09375 663.65625 599.339844 667.367188 594.496094 670.957031 C 589.652344 674.550781 584.722656 678.023438 579.710938 681.371094 C 574.695312 684.722656 569.601562 687.949219 564.429688 691.046875 C 559.257812 694.148438 554.011719 697.121094 548.695312 699.960938 C 543.375 702.804688 537.992188 705.515625 532.539062 708.09375 C 527.089844 710.671875 521.578125 713.113281 516.007812 715.421875 C 510.433594 717.730469 504.8125 719.898438 499.132812 721.929688 C 493.453125 723.960938 487.730469 725.855469 481.960938 727.605469 C 476.1875 729.355469 470.378906 730.960938 464.53125 732.429688 C 458.679688 733.894531 452.796875 735.214844 446.882812 736.390625 C 440.96875 737.566406 435.03125 738.597656 429.0625 739.484375 C 423.097656 740.367188 417.117188 741.105469 411.113281 741.695312 C 405.113281 742.289062 399.101562 742.730469 393.078125 743.027344 C 387.054688 743.324219 381.027344 743.472656 375 743.472656 C 368.96875 743.472656 362.941406 743.324219 356.917969 743.027344 C 350.894531 742.730469 344.882812 742.289062 338.882812 741.695312 C 332.878906 741.105469 326.898438 740.367188 320.933594 739.484375 C 314.96875 738.597656 309.027344 737.566406 303.113281 736.390625 C 297.199219 735.214844 291.316406 733.894531 285.464844 732.429688 C 279.617188 730.960938 273.808594 729.355469 268.035156 727.605469 C 262.265625 725.855469 256.542969 723.960938 250.863281 721.929688 C 245.1875 719.898438 239.5625 717.730469 233.988281 715.421875 C 228.417969 713.113281 222.90625 710.671875 217.457031 708.09375 C 212.003906 705.515625 206.621094 702.804688 201.300781 699.960938 C 195.984375 697.121094 190.738281 694.148438 185.566406 691.046875 C 180.394531 687.949219 175.300781 684.722656 170.285156 681.371094 C 165.273438 678.023438 160.34375 674.550781 155.5 670.957031 C 150.65625 667.367188 145.902344 663.65625 141.242188 659.832031 C 136.578125 656.003906 132.015625 652.066406 127.546875 648.019531 C 123.078125 643.96875 118.710938 639.8125 114.449219 635.546875 C 110.183594 631.285156 106.027344 626.917969 101.976562 622.449219 C 97.929688 617.980469 93.992188 613.417969 90.164062 608.753906 C 86.339844 604.09375 82.628906 599.339844 79.039062 594.496094 C 75.445312 589.652344 71.976562 584.722656 68.625 579.710938 C 65.273438 574.695312 62.050781 569.601562 58.949219 564.429688 C 55.847656 559.257812 52.878906 554.011719 50.035156 548.695312 C 47.191406 543.375 44.480469 537.992188 41.902344 532.539062 C 39.324219 527.089844 36.882812 521.578125 34.574219 516.007812 C 32.265625 510.433594 30.097656 504.8125 28.066406 499.132812 C 26.035156 493.453125 24.140625 487.730469 22.390625 481.960938 C 20.640625 476.1875 19.035156 470.378906 17.566406 464.53125 C 16.101562 458.679688 14.78125 452.796875 13.605469 446.882812 C 12.429688 440.96875 11.398438 435.03125 10.515625 429.0625 C 9.628906 423.097656 8.890625 417.117188 8.300781 411.113281 C 7.707031 405.113281 7.265625 399.101562 6.96875 393.078125 C 6.671875 387.054688 6.527344 381.027344 6.527344 375 C 6.527344 368.96875 6.671875 362.941406 6.96875 356.917969 C 7.265625 350.894531 7.707031 344.882812 8.300781 338.882812 C 8.890625 332.878906 9.628906 326.898438 10.515625 320.933594 C 11.398438 314.96875 12.429688 309.027344 13.605469 303.113281 C 14.78125 297.199219 16.101562 291.316406 17.566406 285.464844 C 19.035156 279.617188 20.640625 273.808594 22.390625 268.035156 C 24.140625 262.265625 26.035156 256.542969 28.066406 250.863281 C 30.097656 245.1875 32.265625 239.5625 34.574219 233.988281 C 36.882812 228.417969 39.324219 222.90625 41.902344 217.457031 C 44.480469 212.003906 47.191406 206.621094 50.035156 201.300781 C 52.878906 195.984375 55.847656 190.738281 58.949219 185.566406 C 62.050781 180.394531 65.273438 175.300781 68.625 170.285156 C 71.976562 165.273438 75.445312 160.34375 79.039062 155.5 C 82.628906 150.65625 86.339844 145.902344 90.164062 141.242188 C 93.992188 136.582031 97.929688 132.015625 101.976562 127.546875 C 106.027344 123.078125 110.183594 118.710938 114.449219 114.449219 C 118.710938 110.183594 123.078125 106.027344 127.546875 101.976562 C 132.015625 97.929688 136.578125 93.992188 141.242188 90.164062 C 145.902344 86.339844 150.65625 82.628906 155.5 79.039062 C 160.34375 75.445312 165.273438 71.976562 170.285156 68.625 C 175.300781 65.273438 180.394531 62.050781 185.566406 58.949219 C 190.738281 55.847656 195.984375 52.878906 201.300781 50.035156 C 206.621094 47.191406 212.003906 44.480469 217.457031 41.902344 C 222.90625 39.324219 228.417969 36.882812 233.988281 34.574219 C 239.5625 32.265625 245.1875 30.097656 250.863281 28.066406 C 256.542969 26.035156 262.265625 24.140625 268.035156 22.390625 C 273.808594 20.640625 279.617188 19.035156 285.464844 17.566406 C 291.316406 16.101562 297.199219 14.78125 303.113281 13.605469 C 309.027344 12.429688 314.96875 11.398438 320.933594 10.515625 C 326.898438 9.628906 332.878906 8.890625 338.882812 8.300781 C 344.882812 7.707031 350.894531 7.265625 356.917969 6.96875 C 362.941406 6.671875 368.96875 6.527344 375 6.527344 C 381.027344 6.527344 387.054688 6.671875 393.078125 6.96875 C 399.101562 7.265625 405.113281 7.707031 411.113281 8.300781 C 417.117188 8.890625 423.097656 9.628906 429.0625 10.515625 C 435.03125 11.398438 440.96875 12.429688 446.882812 13.605469 C 452.796875 14.78125 458.679688 16.101562 464.53125 17.566406 C 470.378906 19.035156 476.1875 20.640625 481.960938 22.390625 C 487.730469 24.140625 493.453125 26.035156 499.132812 28.066406 C 504.8125 30.097656 510.433594 32.265625 516.007812 34.574219 C 521.578125 36.882812 527.089844 39.324219 532.539062 41.902344 C 537.992188 44.480469 543.375 47.191406 548.695312 50.035156 C 554.011719 52.878906 559.257812 55.847656 564.429688 58.949219 C 569.601562 62.050781 574.695312 65.273438 579.710938 68.625 C 584.722656 71.976562 589.652344 75.445312 594.496094 79.039062 C 599.339844 82.628906 604.09375 86.339844 608.753906 90.164062 C 613.417969 93.992188 617.980469 97.929688 622.449219 101.976562 C 626.917969 106.027344 631.285156 110.183594 635.546875 114.449219 C 639.8125 118.710938 643.96875 123.078125 648.019531 127.546875 C 652.066406 132.015625 656.003906 136.582031 659.832031 141.242188 C 663.65625 145.902344 667.367188 150.65625 670.957031 155.5 C 674.550781 160.34375 678.023438 165.273438 681.371094 170.285156 C 684.722656 175.300781 687.949219 180.394531 691.046875 185.566406 C 694.148438 190.738281 697.121094 195.984375 699.960938 201.300781 C 702.804688 206.621094 705.515625 212.003906 708.09375 217.457031 C 710.671875 222.90625 713.113281 228.417969 715.421875 233.988281 C 717.730469 239.5625 719.898438 245.1875 721.929688 250.863281 C 723.960938 256.542969 725.855469 262.265625 727.605469 268.035156 C 729.355469 273.808594 730.960938 279.617188 732.429688 285.464844 C 733.894531 291.316406 735.214844 297.199219 736.390625 303.113281 C 737.566406 309.027344 738.597656 314.96875 739.484375 320.933594 C 740.367188 326.898438 741.105469 332.878906 741.695312 338.882812 C 742.289062 344.882812 742.730469 350.894531 743.027344 356.917969 C 743.324219 362.941406 743.472656 368.96875 743.472656 375 Z M 743.472656 375 " fill-opacity="1" fill-rule="nonzero"/></g><path fill="#ffffff" d="M 569.550781 348.320312 C 554.519531 333.285156 534.179688 324.738281 512.808594 324.886719 C 510.597656 324.886719 508.386719 324.886719 506.027344 325.035156 C 502.488281 256.496094 445.597656 201.816406 376.175781 201.816406 C 347.582031 201.667969 319.726562 211.101562 297.175781 228.640625 C 276.246094 244.707031 260.773438 266.667969 252.519531 291.722656 C 197.246094 300.714844 156.566406 348.46875 156.566406 404.625 L 156.566406 405.214844 C 156.566406 405.359375 156.566406 405.65625 156.566406 405.65625 C 156.566406 456.652344 197.984375 498.214844 248.980469 498.214844 L 500.867188 498.214844 C 551.863281 498.214844 593.28125 456.652344 593.28125 405.65625 C 593.28125 404.917969 593.132812 404.328125 592.988281 403.589844 C 592.691406 382.664062 584.289062 362.914062 569.550781 348.320312 Z M 345.667969 411.550781 L 335.203125 422.015625 L 291.722656 378.535156 L 335.203125 335.054688 L 345.667969 345.519531 L 312.503906 378.683594 Z M 365.859375 440.585938 L 351.710938 436.753906 L 384.285156 316.632812 L 398.433594 320.464844 Z M 414.792969 422.015625 L 404.328125 411.550781 L 437.492188 378.386719 L 404.328125 345.226562 L 414.792969 334.761719 L 458.273438 378.242188 Z M 414.792969 422.015625 " fill-opacity="1" fill-rule="nonzero"/></svg>